
   General
       Format : AVI
      Format/Info : Audio Video Interleave
      File size : 711 MiB
      Duration : 1h 26mn
      Overall bit rate : 1 143 Kbps
      Writing application : Lavf52.57.1
      Writing library : Boilsoft AVI tool build 30012/release
   Video #0
      Format : MPEG-4 Visual
      Codec ID : FMP4
      Duration : 1h 26mn
      Bit rate : 1 001 Kbps
      Width : 720 pixels
      Height : 416 pixels
      Display aspect ratio : 1.731
      Frame rate : 30.000 fps
      Color space : YUV
      Chroma subsampling : 4:2:0
      Compression mode : Lossy
      Bits/(Pixel*Frame) : 0.111
      Stream size : 623 MiB (88%)
   Audio #1
      ID : 1
      Format : MPEG Audio
      Format version : Version 1
      Format profile : Layer 3
      Mode : Joint stereo
      Mode extension : MS Stereo
      Codec ID : 55
      Codec ID/Hint : MP3
      Duration : 1h 26mn
      Bit rate mode : Constant
      Bit rate : 128 Kbps
      Channel(s) : 2 channels
      Sampling rate : 44.1 KHz
      Compression mode : Lossy
      Stream size : 79.6 MiB (11%)
      Alignment : Aligned on interleaves
      Interleave, duration : 26 ms (0.78 video frame)
      Interleave, preload duration : 522 ms
      Writing library : LAME3.97